<?xml version="1.0" encoding="UTF-8" standalone="no"?>
<svg
   xmlns:dc="http://purl.org/dc/elements/1.1/"
   xmlns:cc="http://creativecommons.org/ns#"
   xmlns:rdf="http://www.w3.org/1999/02/22-rdf-syntax-ns#"
   xmlns:svg="http://www.w3.org/2000/svg"
   xmlns="http://www.w3.org/2000/svg"
   viewBox="0 0 5.9901667 5.9901667"
   id="svg2"
   height="5.9901667mm"
   width="5.9901667mm"
   version="1.0">
  <metadata
     id="metadata11">
    <rdf:RDF>
      <cc:Work
         rdf:about="">
        <dc:format>image/svg+xml</dc:format>
        <dc:type
           rdf:resource="http://purl.org/dc/dcmitype/StillImage" />
      </cc:Work>
    </rdf:RDF>
  </metadata>
  <defs
     id="defs4">
    <pattern
       y="0"
       x="0"
       height="6"
       width="6"
       patternUnits="userSpaceOnUse"
       id="WMFhbasepattern" />
  </defs>
  <path
     id="path7"
     d="m 3.8946667,5.9055 -0.042333,-0.3386667 0.0635,-0.3175 0.254,-0.1058333 0.3598334,-0.254 0.2116666,-0.1905 0.2963334,-0.4445 0.2751666,-0.762 0,-1.1006667 L 5.0376667,1.651 4.7413333,1.2065 4.5296667,1.016 4.1698333,0.762 3.9581667,0.6985 3.8735,0.42333333 l 0.021167,-0.27516666 0,-0.0635 L 4.0005,0 4.318,0.0635 l 0.2963333,0.16933333 0.3386667,0.254 0.508,0.67733337 0.254,0.508 0.1481667,0.3175 L 5.969,2.54 l 0,0.4233333 0,0.4021667 L 5.8631667,3.9158333 5.715,4.2333333 5.461,4.7413333 4.953,5.3975 4.6143333,5.6303333 4.3391667,5.842 4.0428333,5.9901667 3.9158333,5.969 3.8946667,5.9055 Z M 1.5028333,4.5508333 1.1006667,4.1275 0.67733333,3.7676667 l -0.1905,-0.021167 -0.27516666,0 -0.1905,-0.254 0,-0.4868333 0,-0.4656667 0.21166666,-0.254 0.27516667,0 0.21166667,-0.021167 0.46566663,-0.4445 0.4021667,-0.4445 0.6138333,-0.57149997 0.254,-0.1905 0.0635,0 0.042333,0.1905 0,0.84666667 L 2.54,2.9633333 2.5611667,4.2545 l 0,0.9101667 -0.042333,0.2116666 -0.0635,0 L 2.159,5.1646667 1.5028333,4.5508333 Z M 3.4925,4.0005 3.4501667,2.921 3.4925,1.8626667 l 0.084667,-0.0635 0.127,0.127 0.1693333,0.1905 0.1693333,0.1905 L 4.191,2.6035 l 0.021167,0.3598333 0,0.3598334 -0.127,0.3598333 -0.1905,0.1905 -0.1905,0.1905 L 3.556,4.1275 3.4925,4.0005 Z"
     style="fill:#777777;fill-opacity:1;fill-rule:nonzero;stroke:none" />
</svg>
