<?xml version="1.0" encoding="UTF-8" standalone="no"?>
<svg
   xmlns:dc="http://purl.org/dc/elements/1.1/"
   xmlns:cc="http://creativecommons.org/ns#"
   xmlns:rdf="http://www.w3.org/1999/02/22-rdf-syntax-ns#"
   xmlns:svg="http://www.w3.org/2000/svg"
   xmlns="http://www.w3.org/2000/svg"
   viewBox="0 0 7.0061669 7.0061669"
   id="svg2"
   height="7.0061669mm"
   width="7.0061669mm"
   version="1.0">
  <metadata
     id="metadata11">
    <rdf:RDF>
      <cc:Work
         rdf:about="">
        <dc:format>image/svg+xml</dc:format>
        <dc:type
           rdf:resource="http://purl.org/dc/dcmitype/StillImage" />
      </cc:Work>
    </rdf:RDF>
  </metadata>
  <defs
     id="defs4">
    <pattern
       y="0"
       x="0"
       height="6"
       width="6"
       patternUnits="userSpaceOnUse"
       id="WMFhbasepattern" />
  </defs>
  <path
     id="path7"
     d="M 4.4661667,6.858 4.445,6.477 l 0.084667,-0.381 0.254,-0.1058333 0.4445,-0.2963334 0.2116666,-0.2116666 0.3386667,-0.508 0.2328333,-0.5715 0.1058334,-0.6138334 0,-0.6138333 L 6.0113333,2.5611667 5.7785,1.9896667 5.4398333,1.4816667 5.2281667,1.27 l -0.4445,-0.27516667 -0.2328334,-0.0635 -0.1058333,-0.3175 0.021167,-0.3175 0.021167,-0.0846667 L 4.5931667,0.127 4.953,0.1905 l 0.3386667,0.21166667 0.381,0.29633333 0.5715,0.762 0.2963333,0.5715 0.1693333,0.381 0.127,0.6138333 0,0.4445 0,0.4868334 -0.127,0.635 -0.1693333,0.381 -0.2963333,0.5715 -0.5715,0.7408333 -0.381,0.2751667 L 4.953,6.7945 4.6355,6.9426667 4.5085,6.9215 4.4661667,6.858 Z M 1.7568333,5.3128333 1.3123333,4.826 0.84666667,4.445 0.61383333,4.4238333 0.3175,4.4238333 0.08466667,4.1275 l 0,-0.5503333 0,-0.5291667 0.254,-0.2963333 0.33866666,0 L 0.889,2.7305 1.4181667,2.2013333 1.8838333,1.7145 2.5611667,1.0371667 2.8575,0.8255 l 0.0635,0 0.042333,0.2328333 0,0.9525 0,1.4605 0,1.5028334 0,1.016 L 2.921,6.223 2.8575,6.2441667 2.5188333,6.0113333 l -0.762,-0.6985 z M 4.0428333,4.699 3.9793333,3.4501667 4.0428333,2.2648333 4.1275,2.1801667 4.2756667,2.3495 4.445,2.5611667 l 0.2116667,0.1905 0.1481666,0.3386666 0,0.381 0,0.4445 -0.127,0.4021667 -0.2116666,0.2116667 -0.1905,0.2116666 -0.1693334,0.0635 L 4.0428333,4.699 Z"
     style="fill:#000000;fill-opacity:1;fill-rule:nonzero;stroke:none" />
</svg>
